<svg width="1600" height="1000" viewBox="0 0 1600 1000" xmlns="http://www.w3.org/2000/svg" role="img" aria-label="Abstract cyber visual for JAIBOT">
  <defs>
    <linearGradient id="bg" x1="0" y1="0" x2="1" y2="1">
      <stop offset="0%" stop-color="#050608"/>
      <stop offset="100%" stop-color="#13161d"/>
    </linearGradient>
    <radialGradient id="glow" cx="50%" cy="50%" r="55%">
      <stop offset="0%" stop-color="#ffd60a" stop-opacity="0.3"/>
      <stop offset="100%" stop-color="#ffd60a" stop-opacity="0"/>
    </radialGradient>
    <pattern id="grid" width="56" height="56" patternUnits="userSpaceOnUse">
      <path d="M56 0H0V56" fill="none" stroke="#665100" stroke-opacity="0.14" stroke-width="1"/>
    </pattern>
  </defs>
  <rect width="1600" height="1000" fill="url(#bg)"/>
  <rect width="1600" height="1000" fill="url(#grid)"/>
  <ellipse cx="800" cy="500" rx="430" ry="300" fill="url(#glow)"/>

  <g stroke="#ffd60a" stroke-opacity="0.75" stroke-width="2.4" fill="none">
    <circle cx="800" cy="500" r="150"/>
    <circle cx="800" cy="500" r="92" stroke-opacity="0.55"/>
    <line x1="800" y1="500" x2="530" y2="360"/>
    <line x1="800" y1="500" x2="470" y2="560"/>
    <line x1="800" y1="500" x2="630" y2="740"/>
    <line x1="800" y1="500" x2="970" y2="740"/>
    <line x1="800" y1="500" x2="1130" y2="560"/>
    <line x1="800" y1="500" x2="1070" y2="360"/>
  </g>

  <g fill="#ffd60a" fill-opacity="0.88">
    <circle cx="800" cy="500" r="10"/>
    <circle cx="530" cy="360" r="9"/><circle cx="470" cy="560" r="9"/><circle cx="630" cy="740" r="9"/>
    <circle cx="970" cy="740" r="9"/><circle cx="1130" cy="560" r="9"/><circle cx="1070" cy="360" r="9"/>
  </g>

  <g stroke="#7f6600" stroke-opacity="0.34" stroke-width="2" fill="none">
    <path d="M90 760 C330 650, 540 800, 790 680 S1250 560, 1510 725"/>
    <path d="M75 850 C335 740, 555 900, 805 790 S1265 675, 1525 820"/>
  </g>
</svg>
