<svg width="1600" height="1000" viewBox="0 0 1600 1000" xmlns="http://www.w3.org/2000/svg" role="img" aria-label="Abstract cyber visual for OpenClaw">
  <defs>
    <linearGradient id="bg" x1="0" y1="0" x2="1" y2="1">
      <stop offset="0%" stop-color="#050608"/>
      <stop offset="100%" stop-color="#13161d"/>
    </linearGradient>
    <radialGradient id="glow" cx="50%" cy="50%" r="56%">
      <stop offset="0%" stop-color="#ffd60a" stop-opacity="0.28"/>
      <stop offset="100%" stop-color="#ffd60a" stop-opacity="0"/>
    </radialGradient>
    <pattern id="grid" width="56" height="56" patternUnits="userSpaceOnUse">
      <path d="M56 0H0V56" fill="none" stroke="#665100" stroke-opacity="0.14" stroke-width="1"/>
    </pattern>
  </defs>
  <rect width="1600" height="1000" fill="url(#bg)"/>
  <rect width="1600" height="1000" fill="url(#grid)"/>
  <ellipse cx="800" cy="500" rx="420" ry="290" fill="url(#glow)"/>

  <g fill="none" stroke="#ffd60a" stroke-opacity="0.66" stroke-width="2.8" stroke-linecap="round">
    <path d="M770 390 C675 305, 560 305, 490 390"/>
    <path d="M800 415 C705 330, 555 340, 455 435"/>
    <path d="M830 445 C740 370, 560 392, 440 500"/>

    <path d="M830 390 C925 305, 1040 305, 1110 390"/>
    <path d="M800 415 C895 330, 1045 340, 1145 435"/>
    <path d="M770 445 C860 370, 1040 392, 1160 500"/>
  </g>

  <g stroke="#ffd60a" stroke-opacity="0.84" fill="none" stroke-width="2.2">
    <circle cx="800" cy="510" r="82"/>
    <circle cx="800" cy="510" r="132" stroke-opacity="0.42"/>
    <path d="M748 510 H852"/>
    <path d="M800 458 V562"/>
  </g>

  <g fill="#ffd60a" fill-opacity="0.84">
    <circle cx="490" cy="390" r="6"/><circle cx="455" cy="435" r="6"/><circle cx="440" cy="500" r="6"/>
    <circle cx="1110" cy="390" r="6"/><circle cx="1145" cy="435" r="6"/><circle cx="1160" cy="500" r="6"/>
    <circle cx="800" cy="510" r="7"/>
  </g>

  <g stroke="#7f6600" stroke-opacity="0.35" stroke-width="2" fill="none">
    <path d="M100 770 C310 655, 530 790, 760 680 S1245 560, 1500 730"/>
    <path d="M80 860 C330 760, 550 900, 790 790 S1260 670, 1520 820"/>
  </g>
</svg>
