<svg width="1600" height="1000" viewBox="0 0 1600 1000" xmlns="http://www.w3.org/2000/svg" role="img" aria-label="Abstract cyber visual for Pandaland">
  <defs>
    <linearGradient id="bg" x1="0" y1="0" x2="1" y2="1">
      <stop offset="0%" stop-color="#050608"/>
      <stop offset="100%" stop-color="#13161d"/>
    </linearGradient>
    <radialGradient id="glow" cx="50%" cy="50%" r="54%">
      <stop offset="0%" stop-color="#ffd60a" stop-opacity="0.28"/>
      <stop offset="100%" stop-color="#ffd60a" stop-opacity="0"/>
    </radialGradient>
    <pattern id="grid" width="56" height="56" patternUnits="userSpaceOnUse">
      <path d="M56 0H0V56" fill="none" stroke="#665100" stroke-opacity="0.14" stroke-width="1"/>
    </pattern>
  </defs>
  <rect width="1600" height="1000" fill="url(#bg)"/>
  <rect width="1600" height="1000" fill="url(#grid)"/>
  <ellipse cx="800" cy="500" rx="430" ry="300" fill="url(#glow)"/>

  <g fill="none" stroke="#ffd60a" stroke-width="2.2" stroke-opacity="0.72">
    <path d="M560 380 L680 315 L800 380 L800 520 L680 585 L560 520 Z"/>
    <path d="M800 380 L920 315 L1040 380 L1040 520 L920 585 L800 520 Z"/>
    <path d="M680 585 L800 650 L920 585"/>
    <path d="M680 315 L800 250 L920 315"/>
  </g>

  <g fill="none" stroke="#ffd60a" stroke-opacity="0.84" stroke-width="2.5">
    <path d="M450 500 C540 430, 620 430, 700 500"/>
    <path d="M900 500 C980 430, 1060 430, 1150 500"/>
  </g>

  <g fill="#ffd60a" fill-opacity="0.86">
    <circle cx="680" cy="315" r="6"/><circle cx="800" cy="250" r="6"/><circle cx="920" cy="315" r="6"/>
    <circle cx="560" cy="520" r="6"/><circle cx="680" cy="585" r="6"/><circle cx="800" cy="650" r="6"/><circle cx="920" cy="585" r="6"/><circle cx="1040" cy="520" r="6"/>
  </g>

  <g stroke="#7f6600" stroke-opacity="0.34" stroke-width="2" fill="none">
    <path d="M95 760 C320 650, 560 790, 790 675 S1260 560, 1500 725"/>
    <path d="M80 850 C320 745, 560 900, 800 790 S1265 680, 1515 820"/>
  </g>
</svg>
